<?xml version="1.0" encoding="UTF-8"?>
<svg version="1.1" xmlns="http://www.w3.org/2000/svg" width="709" height="352">
<path d="M0 0 C1.66226372 -0.01925285 1.66226372 -0.01925285 3.35810852 -0.03889465 C5.16894173 -0.04997505 5.16894173 -0.04997505 7.01635742 -0.0612793 C8.2484343 -0.06935104 9.48051117 -0.07742279 10.74992371 -0.08573914 C13.3635415 -0.0996004 15.97717755 -0.11031336 18.59082031 -0.11816406 C21.2730174 -0.12702639 23.95469679 -0.14789973 26.63671875 -0.1796875 C30.49259196 -0.22220067 34.34777942 -0.23851227 38.20385742 -0.2487793 C39.40500687 -0.26628738 40.60615631 -0.28379547 41.84370422 -0.30183411 C43.52015266 -0.29744576 43.52015266 -0.29744576 45.23046875 -0.29296875 C46.21340408 -0.29883499 47.19633942 -0.30470123 48.20906067 -0.31074524 C51.55221846 0.31635066 52.6869783 1.57664563 54.80932617 4.17700195 C55.88336523 6.09572798 56.87492535 8.06153353 57.80932617 10.05200195 C60.73269908 16.11588964 63.87207908 22.03208646 67.12182617 27.92700195 C72.43081652 37.58314071 77.60364102 47.30699129 82.74682617 57.05200195 C90.95972779 72.60613424 99.26341872 88.10814996 107.74682617 103.5168457 C113.81151238 114.54969219 119.66254856 125.67571626 125.40274048 136.87969971 C129.56638214 144.99427022 133.8890963 152.96404418 138.59936523 160.77514648 C141.33771693 165.3233018 143.75719364 169.95294219 146.07495117 174.73168945 C148.4152129 179.38058776 150.92673213 183.92919271 153.43432617 188.48950195 C158.29828859 197.33785517 163.01925616 206.25087602 167.62426758 215.23681641 C170.39242128 220.6022322 173.33022032 225.81054555 176.47045898 230.96704102 C180.23675162 237.1837589 183.63003321 243.64178864 186.80932617 250.17700195 C187.34557617 249.22825195 187.88182617 248.27950195 188.43432617 247.30200195 C190.04432482 244.47516415 191.7180256 241.69759297 193.42260742 238.92700195 C197.27839229 232.50891764 200.73581269 225.89061938 204.21218872 219.26239014 C206.19630929 215.48045237 208.1907172 211.70394413 210.18432617 207.92700195 C210.58031509 207.17635468 210.97630402 206.4257074 211.3842926 205.65231323 C218.48136618 192.2091811 225.7009081 178.83258796 233.21337891 165.61669922 C238.99390756 155.38418376 244.44996148 144.96720846 249.97998047 134.59814453 C252.4066039 130.06000571 254.85148111 125.53186289 257.29931641 121.00512695 C259.20861013 117.42917571 261.02513029 113.81676154 262.80932617 110.17700195 C263.46932617 110.17700195 264.12932617 110.17700195 264.80932617 110.17700195 C264.9721106 109.10663696 264.9721106 109.10663696 265.13818359 108.01464844 C265.87384357 104.90421702 267.01487723 102.57671498 268.54760742 99.7746582 C269.11479492 98.73003418 269.68198242 97.68541016 270.26635742 96.60913086 C270.87866211 95.49715332 271.4909668 94.38517578 272.12182617 93.23950195 C273.07571824 91.48751038 274.02961018 89.73551875 274.98348999 87.98352051 C276.58627182 85.04480991 278.19834059 82.11122318 279.80932617 79.17700195 C281.97761515 75.21955507 284.14420776 71.2611843 286.30932617 67.30200195 C286.80537354 66.39571045 287.3014209 65.48941895 287.8125 64.55566406 C291.29903879 58.16595118 294.62976119 51.72564241 297.80932617 45.17700195 C298.5990056 43.59267656 299.39047032 42.0092388 300.18432617 40.42700195 C300.98870117 38.81825195 300.98870117 38.81825195 301.80932617 37.17700195 C302.46932617 37.17700195 303.12932617 37.17700195 303.80932617 37.17700195 C303.95370117 36.39325195 304.09807617 35.60950195 304.24682617 34.80200195 C304.80932617 32.17700195 304.80932617 32.17700195 305.80932617 30.17700195 C306.46932617 30.17700195 307.12932617 30.17700195 307.80932617 30.17700195 C307.91438477 29.46962891 308.01944336 28.76225586 308.12768555 28.03344727 C308.89576621 24.81477111 310.12642726 22.37450607 311.71557617 19.47387695 C312.29436523 18.41168945 312.8731543 17.34950195 313.46948242 16.25512695 C314.07663086 15.1568457 314.6837793 14.05856445 315.30932617 12.92700195 C315.91647461 11.81325195 316.52362305 10.69950195 317.14916992 9.55200195 C321.64503203 1.34129609 321.64503203 1.34129609 322.80932617 0.17700195 C325.00082413 0.07340227 327.19572452 0.04176414 329.3896637 0.03656006 C330.43369359 0.03210338 330.43369359 0.03210338 331.498815 0.02755666 C333.84915682 0.01883216 336.19944792 0.01735818 338.54980469 0.01586914 C340.22840484 0.01124307 341.90700394 0.0062187 343.58560181 0.00082397 C348.16291679 -0.01233519 352.74021708 -0.01875352 357.31754804 -0.02318668 C360.18125878 -0.02611591 363.04496551 -0.03022076 365.90867424 -0.03469086 C374.87882805 -0.04838416 383.84897267 -0.05803795 392.8191362 -0.06189275 C403.15166664 -0.06635755 413.48406373 -0.08382393 423.81655365 -0.11289334 C431.81166492 -0.13459914 439.80673896 -0.14460199 447.80187935 -0.14593387 C452.57107693 -0.14697691 457.3401495 -0.15277543 462.10931587 -0.17075348 C466.6097585 -0.18738508 471.10998429 -0.18931749 475.61044693 -0.18061447 C477.2501541 -0.17985169 478.88987363 -0.18408471 480.52955055 -0.19407272 C491.33394367 -0.25594862 501.24642638 0.82760289 511.80932617 3.17700195 C512.90036431 3.41018505 513.99140245 3.64336815 515.11550236 3.8836174 C533.74826108 7.97939911 548.36511453 16.92595427 561.80932617 30.17700195 C562.47963867 30.83442383 563.14995117 31.4918457 563.84057617 32.16918945 C572.92609739 41.79158238 577.73698948 53.81793362 581.80932617 66.17700195 C582.1625293 67.01102539 582.51573242 67.84504883 582.87963867 68.7043457 C585.02786601 74.41790834 584.96914843 80.24917203 584.97729492 86.2668457 C584.98062332 87.1295961 584.98395172 87.9923465 584.98738098 88.88124084 C584.99242526 90.69914215 584.99479008 92.51705264 584.99462891 94.33496094 C584.99681639 97.10212565 585.01500137 99.86889196 585.03393555 102.63598633 C585.03686988 104.40877143 585.03885441 106.18155842 585.03979492 107.9543457 C585.04698044 108.77434555 585.05416595 109.5943454 585.06156921 110.43919373 C585.04196452 115.41541706 584.38183321 119.45318785 582.80932617 124.17700195 C582.40133789 125.69680664 582.40133789 125.69680664 581.98510742 127.24731445 C575.93938018 148.63988778 562.18859881 165.49503191 543.17260742 176.7355957 C532.63518388 182.39376595 520.62941354 186.33665388 508.80932617 188.17700195 C516.70643459 200.07357829 524.62525862 211.95189191 532.68432617 223.73950195 C535.06002985 227.2181887 537.43522082 230.69722417 539.80932617 234.17700195 C540.34444824 234.96123535 540.87957031 235.74546875 541.4309082 236.5534668 C542.87473212 238.67452707 544.3120066 240.79984407 545.74682617 242.92700195 C546.37596924 243.84848022 546.37596924 243.84848022 547.01782227 244.78857422 C549.80932617 248.94691506 549.80932617 248.94691506 549.80932617 251.17700195 C550.46932617 251.17700195 551.12932617 251.17700195 551.80932617 251.17700195 C553.06937156 252.85404078 554.24062139 254.59799428 555.37182617 256.36450195 C556.09719528 257.48376585 556.82379841 258.60223079 557.55151367 259.7199707 C557.92630859 260.2979541 558.30110352 260.8759375 558.68725586 261.47143555 C560.40237486 264.07844629 562.20227411 266.62423508 563.99682617 269.17700195 C567.93223428 274.84098341 571.73352281 280.58485631 575.49682617 286.36450195 C576.03138428 287.18370117 576.56594238 288.00290039 577.11669922 288.84692383 C580.81297044 294.5470323 584.34904224 300.33084953 587.80932617 306.17700195 C583.81497967 310.17134846 570.11229717 308.10153357 564.37463093 308.24356461 C560.91744472 308.33098767 557.47005883 308.45360442 554.01806641 308.6652832 C531.87623543 309.98881104 531.87623543 309.98881104 525.22839355 305.39257812 C520.89347091 301.04880821 517.92770591 296.09876325 515.14804077 290.66448975 C512.94723788 286.5751414 510.17708421 282.91393974 507.43432617 279.17700195 C506.45708178 277.78868422 505.48264646 276.39837992 504.51245117 275.00512695 C501.53565715 270.76519545 498.45378192 266.60889691 495.33276367 262.47387695 C493.76859672 260.11559447 492.76129695 257.83497976 491.80932617 255.17700195 C491.14932617 255.17700195 490.48932617 255.17700195 489.80932617 255.17700195 C489.14932617 253.19700195 488.48932617 251.21700195 487.80932617 249.17700195 C487.14932617 249.17700195 486.48932617 249.17700195 485.80932617 249.17700195 C484.41658024 247.21791121 483.0930638 245.20919178 481.80932617 243.17700195 C479.30295694 239.51707366 476.77165459 235.87458623 474.23852539 232.2331543 C473.23111092 230.78381287 472.22505187 229.33352885 471.2199707 227.88256836 C464.99061164 218.89261395 458.72514677 209.92742604 452.24682617 201.11450195 C451.53272583 200.12389771 451.53272583 200.12389771 450.80419922 199.11328125 C450.35085205 198.50395752 449.89750488 197.89463379 449.43041992 197.2668457 C448.84925415 196.47588501 448.84925415 196.47588501 448.25634766 195.66894531 C445.07923114 192.39319721 442.2263562 191.0149297 437.70019531 190.82055664 C436.08160895 190.81429116 434.4629006 190.82471749 432.84448242 190.84887695 C431.97472275 190.85075012 431.10496307 190.85262329 430.20884705 190.85455322 C428.36721974 190.86126551 426.52560649 190.87516368 424.68408203 190.89575195 C421.91253879 190.92654955 419.14156957 190.93669555 416.36987305 190.94262695 C412.81007674 190.95403284 409.25515902 191.01006368 405.6965332 191.1003418 C402.65900674 191.17491717 399.68348217 191.1339675 396.65258789 190.92944336 C392.94273882 190.82401336 390.28867742 190.8771477 386.80932617 192.17700195 C383.04855161 196.31736079 380.98684475 200.98137145 378.80932617 206.05200195 C378.20639176 207.35387325 377.59834695 208.65339047 376.98510742 209.95043945 C375.7870862 212.49659754 374.6142055 215.05214472 373.45776367 217.61743164 C371.14541894 222.6106168 368.49502181 227.3780426 365.80932617 232.17700195 C363.46243342 236.50304271 361.13615323 240.84014013 358.80932617 245.17700195 C358.48806763 245.77561035 358.16680908 246.37421875 357.83581543 246.9909668 C352.45568835 257.02330198 347.17696959 267.10410311 341.99291992 277.23950195 C336.7989771 287.34384729 331.2938805 297.20508499 325.80932617 307.17700195 C306.66932617 307.17700195 287.52932617 307.17700195 267.80932617 307.17700195 C267.47932617 306.18700195 267.14932617 305.19700195 266.80932617 304.17700195 C267.46932617 304.17700195 268.12932617 304.17700195 268.80932617 304.17700195 C268.92147461 303.44094727 269.03362305 302.70489258 269.14916992 301.9465332 C269.83483415 299.06998919 270.76603723 297.32787845 272.37182617 294.86450195 C274.91634281 290.75735275 277.18121805 286.57345985 279.30932617 282.23950195 C283.69996902 273.31286012 288.29180745 264.49263584 292.88549805 255.66943359 C295.9074063 249.86101935 298.9042065 244.04476842 301.80932617 238.17700195 C302.46932617 238.17700195 303.12932617 238.17700195 303.80932617 238.17700195 C303.88022461 237.52344727 303.95112305 236.86989258 304.02416992 236.1965332 C305.116144 231.9970508 307.20543648 228.60086636 309.37182617 224.86450195 C312.63559175 219.12129555 315.78756435 213.36402082 318.68432617 207.42700195 C322.40163409 199.83488127 326.45236843 192.43999862 330.52539062 185.03393555 C333.06180299 180.41210016 335.55655076 175.78992787 337.87182617 171.05200195 C340.61370427 165.50296294 343.46328473 160.01519386 346.37182617 154.55200195 C346.83145752 153.66109863 347.29108887 152.77019531 347.76464844 151.85229492 C348.21380615 151.01843262 348.66296387 150.18457031 349.12573242 149.32543945 C349.52219971 148.57439941 349.91866699 147.82335937 350.32714844 147.04956055 C352.3137848 144.53967734 353.7307504 144.11081437 356.80932617 143.17700195 C359.7441248 143.00868382 362.57860471 142.9443912 365.51049805 142.98168945 C366.37838455 142.98460999 367.24627106 142.98753052 368.14045715 142.99053955 C370.02721936 142.998146 371.9139673 143.01037338 373.80067444 143.02667236 C376.82730951 143.05242079 379.85376646 143.06529515 382.88049316 143.07495117 C390.42768381 143.1015876 397.97471401 143.14900111 405.52178955 143.19775391 C437.76110025 143.40302501 469.66393734 142.74172935 501.80932617 140.17700195 C501.80932617 139.51700195 501.80932617 138.85700195 501.80932617 138.17700195 C502.35459961 138.03004883 502.89987305 137.8830957 503.46166992 137.73168945 C513.14192328 134.85243461 520.67261306 130.0253035 525.80932617 121.17700195 C531.76784453 109.01169364 532.6617942 95.17010842 528.80932617 82.17700195 C528.59147461 81.40485352 528.37362305 80.63270508 528.14916992 79.8371582 C526.66792761 74.9725318 524.73615032 71.31492575 521.80932617 67.17700195 C521.80932617 66.51700195 521.80932617 65.85700195 521.80932617 65.17700195 C521.14932617 65.17700195 520.48932617 65.17700195 519.80932617 65.17700195 C518.47599284 63.84366862 517.14265951 62.51033529 515.80932617 61.17700195 C511.65776724 58.14570495 507.72726322 56.21519033 502.87182617 54.55200195 C501.70780273 54.14723633 500.5437793 53.7424707 499.34448242 53.32543945 C498.17788086 52.94645508 497.0112793 52.5674707 495.80932617 52.17700195 C494.85150742 51.82989166 493.89368866 51.48278137 492.90684509 51.12515259 C487.30368175 49.55107913 481.48713728 49.8683115 475.71386719 49.8581543 C474.40586655 49.84810867 473.09786591 49.83806305 471.75022888 49.82771301 C468.18052162 49.80051671 464.61085359 49.78529456 461.04107022 49.77228498 C457.30410361 49.75660883 453.56721659 49.729833 449.83030701 49.70425415 C442.7615431 49.65754553 435.69276409 49.62076322 428.62392515 49.58758128 C420.57308074 49.54930381 412.52231642 49.49990845 404.47153962 49.44959712 C387.91752607 49.34639507 371.363468 49.25709671 354.80932617 49.17700195 C354.67244888 49.94186417 354.53557159 50.70672638 354.39454651 51.49476624 C353.67303917 54.8016451 352.32206537 57.32148275 350.71166992 60.2980957 C350.40161011 60.87495621 350.09155029 61.45181671 349.77209473 62.04615784 C348.77012905 63.90584651 347.75873074 65.7602056 346.74682617 67.61450195 C346.05574398 68.89227597 345.36507087 70.17027132 344.67480469 71.44848633 C340.69692607 78.79723593 336.62466115 86.08467652 332.42651367 93.30981445 C330.26275846 97.14603746 328.34505409 101.086617 326.40698242 105.0402832 C324.64391287 108.50176205 322.74027234 111.87032185 320.80932617 115.23950195 C315.88185234 123.85070513 311.36561389 132.67343359 306.8581543 141.50927734 C303.79310073 147.48552157 300.59930523 153.30833883 297.09326172 159.03686523 C295.50724162 161.68053365 294.13683583 164.39555315 292.80932617 167.17700195 C290.97749789 170.91678644 289.06092196 174.50996367 286.87182617 178.05200195 C284.14762181 182.48148748 281.83959843 187.05398353 279.55566406 191.72338867 C277.45931982 195.97098822 275.19446208 200.08541337 272.80932617 204.17700195 C270.20869185 208.64531391 267.77474598 213.15917733 265.49682617 217.80200195 C261.37331039 226.17964261 256.82667813 234.3117084 252.30053711 242.47680664 C249.761781 247.07383392 247.25592623 251.6887426 244.74682617 256.30200195 C241.01639415 263.15848424 237.2464081 269.99061779 233.43432617 276.80200195 C230.23232044 282.52518828 227.17280046 288.28241969 224.35620117 294.20825195 C223.84573242 295.18793945 223.33526367 296.16762695 222.80932617 297.17700195 C222.48541901 297.98321991 222.16151184 298.78943787 221.82778931 299.62008667 C220.42426526 302.61120071 219.11855015 304.8010485 216.80932617 307.17700195 C212.2388967 308.58721281 207.84401394 308.34470225 203.09838867 308.15356445 C201.76180328 308.13489216 200.42514902 308.12066742 199.08847046 308.11068726 C195.58490062 308.07266048 192.08553583 307.9746005 188.58361816 307.86364746 C185.00448508 307.76099157 181.42466606 307.71560422 177.84448242 307.6652832 C170.83104549 307.55831825 163.82038808 307.3878588 156.80932617 307.17700195 C155.34869767 304.52961279 154.80932617 303.28251861 154.80932617 300.17700195 C154.14932617 300.17700195 153.48932617 300.17700195 152.80932617 300.17700195 C151.34869767 297.52961279 150.80932617 296.28251861 150.80932617 293.17700195 C150.14932617 293.17700195 149.48932617 293.17700195 148.80932617 293.17700195 C144.45795954 285.03833473 140.13156789 276.89700907 136.05932617 268.61450195 C132.5402164 261.48176655 128.78602894 254.48193211 124.99682617 247.48950195 C124.43318359 246.44914795 123.86954102 245.40879395 123.28881836 244.33691406 C120.33289071 238.8671461 120.33289071 238.8671461 117.13085938 233.54101562 C115.80932617 231.17700195 115.80932617 231.17700195 115.80932617 228.17700195 C115.14932617 228.17700195 114.48932617 228.17700195 113.80932617 228.17700195 C113.22538086 226.99170898 113.22538086 226.99170898 112.62963867 225.7824707 C107.5247238 215.49030363 102.20855009 205.31753111 96.80932617 195.17700195 C96.27887695 194.18055664 95.74842773 193.18411133 95.2019043 192.1574707 C88.89639234 180.33372458 82.50842626 168.56853584 75.87182617 156.92700195 C71.88592943 149.932548 68.07092858 142.92652151 64.54370117 135.6887207 C62.39245196 131.33292557 60.13891716 127.03587123 57.87182617 122.73950195 C57.23845337 121.53741089 57.23845337 121.53741089 56.59228516 120.31103516 C54.54341281 116.43088723 52.48018112 112.55923481 50.39135742 108.70043945 C50.01809326 108.00877686 49.6448291 107.31711426 49.26025391 106.60449219 C48.55911028 105.30768671 47.85436623 104.01281942 47.14550781 102.72021484 C44.80932617 98.3987958 44.80932617 98.3987958 44.80932617 96.17700195 C44.14932617 96.17700195 43.48932617 96.17700195 42.80932617 96.17700195 C42.37104492 95.28883789 41.93276367 94.40067383 41.48120117 93.4855957 C35.43593013 81.28913916 29.13422974 69.23023692 22.80932617 57.17700195 C22.10743164 55.83726318 22.10743164 55.83726318 21.39135742 54.47045898 C20.07360634 51.95531017 18.75435065 49.44095826 17.43432617 46.92700195 C17.05421387 46.202146 16.67410156 45.47729004 16.2824707 44.73046875 C12.16698855 36.90890264 7.91102894 29.164799 3.63354492 21.4309082 C2.58797201 19.53377279 1.54239909 17.63663737 0.49682617 15.73950195 C-0.04006836 14.77334961 -0.57696289 13.80719727 -1.13012695 12.81176758 C-1.64124023 11.88170898 -2.15235352 10.95165039 -2.67895508 9.9934082 C-3.13826416 9.16268799 -3.59757324 8.33196777 -4.07080078 7.47607422 C-5.10764169 5.34746492 -5.81879469 3.51216991 -6.19067383 1.17700195 C-4.49298076 -0.52069112 -2.32430323 0.02333482 0 0 Z " fill="#0C0C0C" transform="translate(50.190673828125,25.822998046875)"/>
<path d="M0 0 C1.98 0.495 1.98 0.495 4 1 C3.01 1 2.02 1 1 1 C1 1.66 1 2.32 1 3 C-15.68897327 8.14145792 -33.58702182 7.33497209 -50.86429834 7.40471697 C-54.29156842 7.42058491 -57.71875569 7.44729646 -61.14596558 7.4727478 C-67.6052068 7.51912434 -74.06446435 7.55606429 -80.52378452 7.58942068 C-87.89049814 7.62793688 -95.25712774 7.67726732 -102.62377 7.72740483 C-117.74911753 7.83011123 -132.87451635 7.91956637 -148 8 C-148.33 8.99 -148.66 9.98 -149 11 C-149.66 11 -150.32 11 -151 11 C-150.25 8.5625 -150.25 8.5625 -149 6 C-144.93141586 4.55362473 -140.67452912 4.88301374 -136.41235352 4.91821289 C-135.1107428 4.92281273 -135.1107428 4.92281273 -133.78283691 4.92750549 C-131.89334255 4.93466334 -130.00385565 4.94405479 -128.11438179 4.95540047 C-125.08364999 4.97291783 -122.05297213 4.98313733 -119.02220154 4.99131775 C-110.40138625 5.01560483 -101.78064031 5.0501995 -93.15991211 5.09594727 C-61.97331166 5.25562051 -31.0935169 4.48253173 0 2 C0 1.34 0 0.68 0 0 Z " fill="#909090" transform="translate(552,164)"/>
<path d="M0 0 C7.26694473 -0.02314782 14.53388154 -0.04092756 21.80085564 -0.05181217 C25.17503026 -0.05703565 28.54917971 -0.06412361 31.92333984 -0.07543945 C35.80046259 -0.08752436 39.6775494 -0.09323263 43.5546875 -0.09765625 C44.76929657 -0.10281754 45.98390564 -0.10797882 47.23532104 -0.11329651 C48.91683762 -0.11340981 48.91683762 -0.11340981 50.63232422 -0.11352539 C51.62271698 -0.115746 52.61310974 -0.11796661 53.6335144 -0.12025452 C56 0 56 0 58 1 C57.67 1.66 57.34 2.32 57 3 C38.52 2.67 20.04 2.34 1 2 C2.98 5.96 4.96 9.92 7 14 C6.67 14.66 6.34 15.32 6 16 C4.79994469 13.9021477 3.61497017 11.7979751 2.4375 9.6875 C1.92413086 8.79514648 1.92413086 8.79514648 1.40039062 7.88476562 C0.52233738 6.29717441 -0.24586268 4.65006069 -1 3 C-0.67 2.01 -0.34 1.02 0 0 Z " fill="#C2C2C2" transform="translate(45,26)"/>
<path d="M0 0 C3.40458262 3.89095157 6.24177968 8.11365765 8 13 C7.67 13.66 7.34 14.32 7 15 C5.82226349 13.25743068 4.65816821 11.50563593 3.5 9.75 C2.8503125 8.77546875 2.200625 7.8009375 1.53125 6.796875 C0 4 0 4 0 0 Z " fill="#BABABA" transform="translate(161,137)"/>
<path d="M0 0 C6.26079448 -0.43177893 9.09075703 0.07260562 14 4 C10.22134307 5.25955231 8.96588214 4.48087189 5.3125 3.0625 C4.31863281 2.68222656 3.32476563 2.30195312 2.30078125 1.91015625 C1.54152344 1.60980469 0.78226563 1.30945313 0 1 C0 0.67 0 0.34 0 0 Z " fill="#BEBEBE" transform="translate(546,77)"/>
</svg>
